<svg width="40" height="40" viewBox="0 0 40 40" fill="none" xmlns="http://www.w3.org/2000/svg">
<g clip-path="url(#clip0_168_146)">
<mask id="mask0_168_146" style="mask-type:alpha" maskUnits="userSpaceOnUse" x="0" y="0" width="40" height="40">
<path fill-rule="evenodd" clip-rule="evenodd" d="M28.3648 39.7269C28.6831 39.851 29.0235 39.9083 29.3649 39.8951C29.7063 39.882 30.0413 39.7988 30.3492 39.6506L38.5845 35.6878C39.0086 35.4836 39.3665 35.1639 39.6169 34.7654C39.8673 34.3668 40.0002 33.9057 40.0001 33.435V6.56531C40.0002 6.09457 39.8674 5.63336 39.617 5.23476C39.3665 4.83616 39.0086 4.51637 38.5845 4.31219L30.3492 0.349999C29.8838 0.126094 29.3604 0.0523744 28.8513 0.139042C28.3422 0.225709 27.8727 0.468478 27.5076 0.833749L11.742 15.2169L4.87511 10.0041C4.56535 9.76886 4.18302 9.64953 3.79446 9.66677C3.4059 9.68401 3.03564 9.83673 2.74792 10.0984L0.545425 12.1019C0.373783 12.258 0.236616 12.4482 0.142698 12.6604C0.048779 12.8725 0.000176965 13.1019 4.82362e-07 13.334C-0.000176 13.566 0.048077 13.7955 0.141673 14.0078C0.235268 14.2201 0.372146 14.4105 0.54355 14.5669L6.49886 20L0.543862 25.4334C0.372552 25.5898 0.235756 25.7802 0.142219 25.9925C0.0486811 26.2048 0.000459458 26.4342 0.000635922 26.6662C0.000812387 26.8982 0.0493831 27.1275 0.143244 27.3397C0.237104 27.5518 0.374189 27.742 0.545737 27.8981L2.74824 29.9016C3.03589 30.1634 3.40614 30.3162 3.79471 30.3335C4.18328 30.3508 4.56565 30.2315 4.87542 29.9962L11.7423 24.7837L27.5079 39.1666C27.7517 39.4108 28.0433 39.6016 28.3648 39.7269ZM30.006 10.9197L18.0439 20L30.0064 29.0806L30.006 10.9197Z" fill="white"/>
</mask>
<g mask="url(#mask0_168_146)">
<path d="M38.5848 4.31875L30.3429 0.349996C29.8774 0.125943 29.3538 0.0521429 28.8444 0.138811C28.3351 0.225479 27.8654 0.468329 27.5001 0.833746L0.519511 25.4334C0.348073 25.5898 0.211162 25.7801 0.117541 25.9924C0.0239208 26.2047 -0.0243459 26.4342 -0.0241694 26.6662C-0.0239929 26.8982 0.0246229 27.1276 0.118566 27.3397C0.212509 27.5519 0.34971 27.7421 0.521386 27.8981L2.72514 29.9016C3.01305 30.1634 3.38349 30.3161 3.77225 30.3334C4.161 30.3507 4.54355 30.2314 4.85357 29.9962L37.3445 5.34781C38.4345 4.52093 40.0001 5.29843 40.0001 6.66656V6.57093C40.0001 6.10034 39.8673 5.6393 39.6169 5.24083C39.3665 4.84237 39.0088 4.52296 38.5848 4.31875Z" fill="#0065A9"/>
<g filter="url(#filter0_d_168_146)">
<path d="M38.5848 35.6816L30.3429 39.6497C29.8775 39.8738 29.3539 39.9477 28.8446 39.8612C28.3352 39.7746 27.8654 39.5319 27.5001 39.1666L0.519511 14.5666C0.348073 14.4102 0.211162 14.2199 0.117541 14.0076C0.0239208 13.7953 -0.0243459 13.5658 -0.0241694 13.3338C-0.0239929 13.1018 0.0246229 12.8724 0.118566 12.6602C0.212509 12.4481 0.34971 12.2579 0.521386 12.1019L2.72514 10.0984C3.01305 9.83664 3.38349 9.68386 3.77225 9.66656C4.161 9.64927 4.54355 9.76856 4.85357 10.0037L37.3445 34.6519C38.4345 35.4791 40.0001 34.7016 40.0001 33.3334V33.4291C40.0001 33.8997 39.8673 34.3607 39.6169 34.7592C39.3665 35.1576 39.0088 35.4773 38.5848 35.6816Z" fill="#007ACC"/>
</g>
<g filter="url(#filter1_d_168_146)">
<path d="M30.3434 39.6506C29.8777 39.8745 29.354 39.9482 28.8447 39.8615C28.3354 39.7748 27.8655 39.5319 27.5002 39.1666C28.4227 40.0891 30.0002 39.4356 30.0002 38.1309V1.86875C30.0002 0.56406 28.4227 -0.0893777 27.5002 0.833435C27.8655 0.468061 28.3354 0.225222 28.8447 0.138503C29.354 0.0517848 29.8777 0.125471 30.3434 0.349372L38.5837 4.3125C39.008 4.51655 39.3661 4.83628 39.6167 5.23489C39.8673 5.6335 40.0003 6.09478 40.0002 6.56562V33.435C40.0003 33.9058 39.8673 34.3671 39.6167 34.7657C39.3661 35.1643 39.008 35.4841 38.5837 35.6881L30.3434 39.6506Z" fill="#1F9CF0"/>
</g>
<path opacity="0.25" fill-rule="evenodd" clip-rule="evenodd" d="M28.3408 39.7269C28.659 39.8509 28.9994 39.9082 29.3407 39.8951C29.6821 39.8819 30.0171 39.7987 30.3249 39.6506L38.5602 35.6878C38.9843 35.4836 39.3422 35.1638 39.5926 34.7652C39.8431 34.3666 39.9759 33.9054 39.9758 33.4347V6.56531C39.9759 6.09457 39.8431 5.63336 39.5926 5.23476C39.3422 4.83616 38.9843 4.51637 38.5602 4.31219L30.3249 0.349999C29.8595 0.126094 29.3361 0.0523744 28.827 0.139042C28.3179 0.225709 27.8483 0.468478 27.4833 0.833749L11.7177 15.2169L4.85079 10.0044C4.54103 9.76918 4.15869 9.64984 3.77014 9.66708C3.38158 9.68432 3.01132 9.83704 2.7236 10.0987L0.521103 12.1022C0.349505 12.2583 0.212376 12.4486 0.118485 12.6607C0.0245941 12.8729 -0.023993 13.1023 -0.0241694 13.3343C-0.0243459 13.5663 0.0238921 13.7958 0.11746 14.0081C0.211028 14.2204 0.347867 14.4108 0.519228 14.5672L6.47454 20L0.519541 25.4331C0.348137 25.5895 0.21126 25.7799 0.117664 25.9922C0.0240681 26.2045 -0.0241849 26.434 -0.0240084 26.666C-0.023832 26.8981 0.0247701 27.1275 0.118689 27.3396C0.212607 27.5518 0.349774 27.742 0.521416 27.8981L2.72392 29.9016C3.0116 30.1633 3.38184 30.3161 3.77039 30.3334C4.15895 30.3507 4.5413 30.2314 4.8511 29.9962L11.7183 24.7834L27.4839 39.1666C27.7276 39.4107 28.0194 39.6015 28.3408 39.7269ZM29.982 10.9194L18.0195 20L29.982 29.0803V10.9194Z" fill="url(#paint0_linear_168_146)"/>
</g>
</g>
<defs>
<filter id="filter0_d_168_146" x="-8.35817" y="1.33091" width="56.6924" height="46.8995" filterUnits="userSpaceOnUse" color-interpolation-filters="sRGB">
<feFlood flood-opacity="0" result="BackgroundImageFix"/>
<feColorMatrix in="SourceAlpha" type="matrix" values="0 0 0 0 0 0 0 0 0 0 0 0 0 0 0 0 0 0 127 0" result="hardAlpha"/>
<feOffset/>
<feGaussianBlur stdDeviation="4.167"/>
<feColorMatrix type="matrix" values="0 0 0 0 0 0 0 0 0 0 0 0 0 0 0 0 0 0 0.25 0"/>
<feBlend mode="overlay" in2="BackgroundImageFix" result="effect1_dropShadow_168_146"/>
<feBlend mode="normal" in="SourceGraphic" in2="effect1_dropShadow_168_146" result="shape"/>
</filter>
<filter id="filter1_d_168_146" x="19.1662" y="-8.23086" width="29.168" height="56.4617" filterUnits="userSpaceOnUse" color-interpolation-filters="sRGB">
<feFlood flood-opacity="0" result="BackgroundImageFix"/>
<feColorMatrix in="SourceAlpha" type="matrix" values="0 0 0 0 0 0 0 0 0 0 0 0 0 0 0 0 0 0 127 0" result="hardAlpha"/>
<feOffset/>
<feGaussianBlur stdDeviation="4.167"/>
<feColorMatrix type="matrix" values="0 0 0 0 0 0 0 0 0 0 0 0 0 0 0 0 0 0 0.25 0"/>
<feBlend mode="overlay" in2="BackgroundImageFix" result="effect1_dropShadow_168_146"/>
<feBlend mode="normal" in="SourceGraphic" in2="effect1_dropShadow_168_146" result="shape"/>
</filter>
<linearGradient id="paint0_linear_168_146" x1="19.9758" y1="0.103124" x2="19.9758" y2="39.8969" gradientUnits="userSpaceOnUse">
<stop stop-color="white"/>
<stop offset="1" stop-color="white" stop-opacity="0"/>
</linearGradient>
<clipPath id="clip0_168_146">
<rect width="40" height="40" fill="white"/>
</clipPath>
</defs>
</svg>
