<svg width="40" height="40" viewBox="0 0 40 40" fill="none" xmlns="http://www.w3.org/2000/svg">
<g clip-path="url(#clip0_168_132)">
<path d="M20.0012 8.00063C14.6678 8.00063 11.3356 10.6663 10.0012 15.9997C12.0006 13.3338 14.3347 12.3341 17.0006 13.0006C18.5228 13.38 19.6106 14.4838 20.8153 15.7069C22.7759 17.6966 25.0453 20 30.0012 20C35.3343 20 38.6668 17.3341 40.0012 11.9994C38.0015 14.6669 35.6678 15.6666 33.0015 15C31.4797 14.6203 30.3931 13.5169 29.1868 12.2938C27.2275 10.3041 24.9587 8.00063 20.0012 8.00063ZM10.0012 20C4.6681 20 1.3356 22.6659 0.0012207 28.0006C2.0006 25.3331 4.33435 24.3334 7.0006 25C8.52278 25.3797 9.6106 26.4831 10.8153 27.7063C12.7759 29.6959 15.0453 31.9994 20.0012 31.9994C25.3343 31.9994 28.6668 29.3338 30.0012 24.0003C28.0015 26.6663 25.6678 27.6659 23.0015 26.9994C21.4797 26.62 20.3931 25.5163 19.1868 24.2931C17.2275 22.3034 14.9587 20 10.0012 20Z" fill="#38BDF8"/>
</g>
<defs>
<clipPath id="clip0_168_132">
<rect width="40" height="40" fill="white"/>
</clipPath>
</defs>
</svg>
