<svg width="40" height="40" viewBox="0 0 40 40" fill="none" xmlns="http://www.w3.org/2000/svg">
<path d="M6.56628 28.4766C4.83565 28.4775 3.4294 27.0694 3.42909 25.3391L3.42847 15.7331C3.42784 14.0044 4.83378 12.5966 6.56222 12.5962C7.40253 12.5956 8.1894 12.9216 8.78253 13.5141C9.37565 14.1066 9.7019 14.8947 9.70253 15.7325L9.70159 25.3388C9.70376 25.7506 9.62389 26.1587 9.46663 26.5393C9.30937 26.9199 9.07787 27.2654 8.78565 27.5556C8.49518 27.8485 8.1494 28.0808 7.7684 28.2388C7.3874 28.3969 6.97878 28.4778 6.56628 28.4766ZM6.56378 13.4391C5.29722 13.4384 4.27065 14.4675 4.27034 15.7331L4.2719 25.3381C4.27182 25.9468 4.51342 26.5306 4.9436 26.9611C5.37377 27.3917 5.95732 27.6339 6.56597 27.6344C6.86737 27.6344 7.16582 27.575 7.44425 27.4596C7.72269 27.3442 7.97564 27.1751 8.18865 26.9619C8.40165 26.7486 8.57053 26.4955 8.68563 26.2169C8.80072 25.9384 8.85977 25.6398 8.8594 25.3384V15.7319C8.85874 15.1235 8.61658 14.5403 8.18613 14.1103C7.75568 13.6804 7.17216 13.439 6.56378 13.4391Z" fill="white"/>
<path d="M31.1694 13.9147L30.3263 13.9144L9.66413 13.9172L8.82069 13.9175L8.82007 13.0741C8.81819 9.61156 10.7044 6.39125 13.7941 4.48875L12.5929 2.29594C12.446 2.03906 12.4091 1.71375 12.4948 1.41625C12.5382 1.26787 12.6106 1.1296 12.7079 1.00949C12.8053 0.889367 12.9255 0.789796 13.0616 0.716562C13.23 0.623884 13.4192 0.575797 13.6113 0.576874C14.0369 0.576874 14.4266 0.807812 14.6323 1.18094L15.8894 3.47125C17.2007 2.99136 18.5866 2.74749 19.9829 2.75094C21.4223 2.75031 22.8026 2.99375 24.1091 3.47312L25.3644 1.17906C25.4644 0.996039 25.6119 0.843362 25.7914 0.73711C25.9708 0.630858 26.1756 0.574963 26.3841 0.575312C26.5761 0.574706 26.7652 0.621736 26.9344 0.712187C27.0708 0.785394 27.1911 0.885196 27.2883 1.0057C27.3854 1.12619 27.4575 1.26495 27.5001 1.41375C27.543 1.56049 27.5563 1.7143 27.5393 1.86623C27.5222 2.01816 27.4751 2.16519 27.4007 2.29875L26.2001 4.49031C29.2848 6.39687 31.1688 9.61469 31.1685 13.0712L31.1694 13.9147ZM25.0613 4.81344L26.6623 1.89C26.6851 1.85327 26.7003 1.81228 26.7067 1.76951C26.7132 1.72674 26.7109 1.68309 26.7 1.64124C26.6891 1.59939 26.6697 1.5602 26.6432 1.52607C26.6166 1.49194 26.5833 1.46358 26.5454 1.44273C26.5075 1.42188 26.4658 1.40896 26.4227 1.40478C26.3797 1.4006 26.3362 1.40523 26.295 1.4184C26.2538 1.43156 26.2157 1.45299 26.183 1.48136C26.1504 1.50974 26.1239 1.54447 26.1051 1.58344L24.4876 4.53656C23.1269 3.93219 21.6035 3.5925 19.9932 3.59406C18.3863 3.5925 16.8657 3.93094 15.5091 4.53312L13.8901 1.58656C13.8703 1.54974 13.8434 1.51721 13.811 1.49086C13.7785 1.46452 13.7412 1.44489 13.7011 1.43311C13.661 1.42134 13.6189 1.41765 13.5774 1.42227C13.5359 1.42688 13.4957 1.43971 13.4591 1.46C13.3038 1.54312 13.2466 1.73844 13.3332 1.89094L14.9348 4.81219C11.7879 6.43531 9.66163 9.52594 9.66351 13.0744L30.3254 13.0719C30.3263 9.52469 28.2038 6.44031 25.0613 4.81344ZM15.2938 9.33125C15.064 9.33113 14.8437 9.23972 14.6813 9.07715C14.5189 8.91458 14.4278 8.69416 14.4279 8.46437C14.428 8.23459 14.5194 8.01426 14.682 7.85187C14.8445 7.68948 15.065 7.59831 15.2948 7.59844C15.5246 7.59885 15.7449 7.6903 15.9074 7.85278C16.0699 8.01525 16.1614 8.2355 16.1619 8.46531C16.1616 8.69525 16.07 8.91564 15.9072 9.07803C15.7444 9.24042 15.5238 9.3315 15.2938 9.33125ZM24.7023 9.32937C24.5885 9.32958 24.4758 9.30732 24.3706 9.26388C24.2654 9.22044 24.1699 9.15667 24.0894 9.07623C24.0089 8.99578 23.9451 8.90024 23.9016 8.79508C23.8581 8.68993 23.8358 8.57723 23.836 8.46344C23.8368 8.23372 23.9283 8.01362 24.0906 7.85104C24.2529 7.68846 24.4729 7.59655 24.7026 7.59531C24.932 7.5972 25.1514 7.68942 25.3132 7.85198C25.4751 8.01455 25.5664 8.23435 25.5673 8.46375C25.5673 8.57738 25.545 8.68991 25.5015 8.79491C25.4581 8.89991 25.3944 8.99533 25.314 9.07571C25.2337 9.15609 25.1383 9.21986 25.0334 9.26339C24.9284 9.30691 24.8159 9.32933 24.7023 9.32937ZM16.1598 39.4247C14.4307 39.4244 13.0235 38.0181 13.0232 36.2878L13.0226 32.0481L12.1982 32.0491C11.7658 32.0506 11.3374 31.9662 10.9379 31.8009C10.5383 31.6355 10.1756 31.3925 9.87069 31.0859C9.56367 30.7811 9.32037 30.4182 9.15497 30.0184C8.98956 29.6186 8.90536 29.1899 8.90726 28.7572L8.90413 13.8737V13.0297H9.74757L30.2548 13.0266L31.0985 13.0259V13.8694L31.1007 28.7547C31.101 30.57 29.6241 32.0472 27.8094 32.0469L26.9801 32.0475L26.981 36.2856C26.981 38.015 25.5741 39.4228 23.8457 39.4228C23.4336 39.4247 23.0252 39.3446 22.6443 39.187C22.2635 39.0294 21.9178 38.7976 21.6276 38.505C21.3348 38.2149 21.1026 37.8694 20.9445 37.4887C20.7864 37.108 20.7055 36.6997 20.7066 36.2875V32.0475H19.2969V36.2866C19.2963 38.0162 17.8898 39.425 16.1598 39.4247Z" fill="white"/>
<path d="M9.75155 28.7569C9.75085 29.0785 9.81366 29.3972 9.93637 29.6945C10.0591 29.9918 10.2393 30.262 10.4666 30.4895C10.694 30.7171 10.964 30.8975 11.2613 31.0204C11.5585 31.1433 11.8771 31.2064 12.1987 31.2059H13.8653L13.8672 36.2884C13.8669 37.5541 14.895 38.5825 16.1594 38.5828C16.4607 38.5826 16.7591 38.5231 17.0374 38.4076C17.3158 38.2921 17.5686 38.1229 17.7816 37.9097C17.9945 37.6965 18.1634 37.4434 18.2785 37.1649C18.3936 36.8864 18.4527 36.5879 18.4525 36.2866L18.4528 31.2056L21.5494 31.2047L21.5491 36.2869C21.5503 37.5528 22.5797 38.5825 23.8437 38.58C25.1112 38.5809 26.1387 37.5512 26.1384 36.285L26.1369 31.2041L27.8097 31.2037C29.1594 31.2041 30.2572 30.1075 30.2572 28.7547L30.2544 13.8687L9.7478 13.8725L9.75155 28.7569ZM33.4362 28.4725C31.7062 28.4728 30.2991 27.0669 30.2994 25.3362L30.2969 15.7306C30.2975 14.0003 31.7025 12.5928 33.4316 12.5928C35.1628 12.5925 36.5709 13.9997 36.5706 15.7297L36.5716 25.3347C36.5719 27.0641 35.1659 28.4728 33.4362 28.4725ZM33.4331 13.4362C32.1666 13.435 31.1403 14.4634 31.1403 15.7306L31.1412 25.3359C31.1411 25.6373 31.2003 25.9356 31.3156 26.2141C31.4308 26.4925 31.5998 26.7454 31.8129 26.9585C32.026 27.1715 32.279 27.3404 32.5574 27.4556C32.8359 27.5708 33.1343 27.6299 33.4356 27.6297C33.7369 27.6297 34.0352 27.5703 34.3135 27.455C34.5918 27.3396 34.8447 27.1706 35.0577 26.9575C35.2706 26.7444 35.4395 26.4914 35.5546 26.213C35.6698 25.9346 35.7289 25.6363 35.7287 25.335L35.7262 15.73C35.7264 15.4288 35.6673 15.1305 35.5521 14.8521C35.437 14.5738 35.2681 14.3209 35.0551 14.1078C34.8421 13.8948 34.5893 13.7258 34.3109 13.6106C34.0326 13.4954 33.7343 13.4361 33.4331 13.4362Z" fill="white"/>
<path d="M6.5637 13.4391C5.29714 13.4384 4.27058 14.4675 4.27026 15.7331L4.27183 25.3381C4.27162 25.6395 4.33082 25.938 4.44605 26.2164C4.56128 26.4949 4.73027 26.7479 4.94336 26.9611C5.15645 27.1742 5.40945 27.3432 5.68792 27.4585C5.96638 27.5737 6.26483 27.633 6.5662 27.6328C6.86754 27.6331 7.16598 27.574 7.44442 27.4588C7.72287 27.3436 7.97584 27.1746 8.18886 26.9615C8.40188 26.7483 8.57075 26.4953 8.6858 26.2168C8.80085 25.9382 8.85982 25.6398 8.85933 25.3384V15.7319C8.85866 15.1235 8.6165 14.5403 8.18605 14.1103C7.7556 13.6804 7.17208 13.439 6.5637 13.4391ZM25.0612 4.81344L26.6621 1.89C26.7029 1.81584 26.7126 1.72853 26.6891 1.64722C26.6657 1.56591 26.6109 1.49723 26.5368 1.45625C26.4626 1.41612 26.3756 1.40697 26.2947 1.4308C26.2138 1.45463 26.1456 1.5095 26.105 1.58344L24.4878 4.5375C23.1271 3.93187 21.6043 3.5925 19.9931 3.59406C18.3862 3.5925 16.864 3.93094 15.509 4.53312L13.89 1.58656C13.8702 1.54978 13.8433 1.51729 13.8109 1.49096C13.7785 1.46464 13.7412 1.44501 13.7011 1.43321C13.6611 1.42141 13.6191 1.41767 13.5776 1.42222C13.5361 1.42676 13.4959 1.4395 13.4593 1.45969C13.4224 1.47941 13.3898 1.50629 13.3634 1.53877C13.3371 1.57124 13.3174 1.60865 13.3057 1.6488C13.2939 1.68896 13.2903 1.73106 13.295 1.77263C13.2997 1.81421 13.3126 1.85443 13.3331 1.89094L14.9346 4.8125C11.7878 6.43531 9.66151 9.52594 9.66339 13.0744L30.3253 13.0719C30.3262 9.52469 28.2037 6.44031 25.0612 4.81344ZM15.2937 9.33125C15.0639 9.33112 14.8436 9.23972 14.6812 9.07715C14.5188 8.91458 14.4276 8.69416 14.4278 8.46437C14.4279 8.23459 14.5193 8.01426 14.6819 7.85187C14.8444 7.68947 15.0649 7.59831 15.2946 7.59844C15.5245 7.59885 15.7447 7.6903 15.9073 7.85278C16.0698 8.01525 16.1613 8.2355 16.1618 8.46531C16.1615 8.69525 16.0699 8.91564 15.9071 9.07803C15.7443 9.24041 15.5236 9.3315 15.2937 9.33125ZM24.7021 9.32937C24.5884 9.32946 24.4757 9.30712 24.3706 9.26363C24.2655 9.22015 24.17 9.15637 24.0895 9.07595C24.0091 8.99553 23.9453 8.90004 23.9017 8.79494C23.8582 8.68984 23.8358 8.57719 23.8359 8.46344C23.8371 8.23384 23.9288 8.01398 24.091 7.85149C24.2532 7.68899 24.4729 7.59695 24.7024 7.59531C24.9318 7.5972 25.1513 7.68942 25.3131 7.85198C25.475 8.01454 25.5662 8.23435 25.5671 8.46375C25.5673 8.57741 25.545 8.68997 25.5016 8.79501C25.4581 8.90005 25.3944 8.99549 25.3141 9.07589C25.2338 9.15629 25.1384 9.22006 25.0334 9.26355C24.9283 9.30705 24.8158 9.32941 24.7021 9.32937ZM9.74776 13.8725L9.7512 28.7584C9.75083 29.0799 9.81389 29.3984 9.93676 29.6954C10.0596 29.9925 10.2399 30.2625 10.4673 30.4898C10.6946 30.7171 10.9646 30.8974 11.2617 31.0202C11.5588 31.143 11.8772 31.206 12.1987 31.2056L13.8653 31.2062L13.8671 36.2887C13.8668 37.5544 14.8956 38.5831 16.1593 38.5831C17.4268 38.5831 18.4537 37.5534 18.454 36.2872L18.4528 31.2059L21.5493 31.205L21.5506 36.2872C21.5506 37.5519 22.5796 38.5828 23.8437 38.5803C25.1112 38.5812 26.1387 37.5516 26.1384 36.2853L26.1368 31.2044L27.8093 31.2031C28.1309 31.2032 28.4493 31.1399 28.7463 31.0169C29.0434 30.8939 29.3133 30.7135 29.5407 30.4862C29.7681 30.2589 29.9485 29.989 30.0716 29.692C30.1947 29.3949 30.258 29.0765 30.2581 28.755L30.2553 13.8691L9.74776 13.8725ZM35.7271 15.7297C35.7272 15.4284 35.6679 15.1301 35.5526 14.8518C35.4373 14.5735 35.2683 14.3207 35.0553 14.1077C34.8422 13.8947 34.5893 13.7258 34.311 13.6106C34.0326 13.4954 33.7343 13.4361 33.4331 13.4362C32.1665 13.435 31.1403 14.4634 31.1403 15.7306L31.1421 25.3362C31.1419 25.6375 31.2011 25.9358 31.3163 26.2142C31.4315 26.4925 31.6004 26.7454 31.8134 26.9584C32.0264 27.1714 32.2793 27.3403 32.5577 27.4555C32.836 27.5707 33.1343 27.6299 33.4356 27.6297C33.7369 27.6297 34.0352 27.5704 34.3135 27.4551C34.5919 27.3397 34.8447 27.1707 35.0577 26.9576C35.2707 26.7445 35.4395 26.4915 35.5547 26.2131C35.6698 25.9347 35.7289 25.6363 35.7287 25.335L35.7271 15.7297Z" fill="#A4C439"/>
</svg>
