<svg width="40" height="40" viewBox="0 0 40 40" fill="none" xmlns="http://www.w3.org/2000/svg">
<g clip-path="url(#clip0_168_182)">
<path d="M35.7228 17.2669C35.7067 17.2669 35.6909 17.2716 35.6775 17.2806L34.9444 17.7088C34.9306 17.7173 34.9192 17.7293 34.9114 17.7435C34.9037 17.7578 34.8997 17.7738 34.9 17.79V18.6463C34.9 18.6825 34.9172 18.71 34.9444 18.7281L35.6775 19.1556C35.6909 19.1645 35.7067 19.1693 35.7228 19.1693C35.7389 19.1693 35.7547 19.1645 35.7681 19.1556L36.5 18.7281C36.5139 18.7194 36.5254 18.7073 36.5333 18.6929C36.5413 18.6785 36.5454 18.6624 36.5453 18.6459V17.7906C36.5454 17.7743 36.5413 17.7583 36.5333 17.7441C36.5254 17.7298 36.5139 17.7179 36.5 17.7094L35.7678 17.2809C35.7545 17.272 35.7388 17.2669 35.7228 17.2669ZM19.7562 22.3869C19.6228 22.3869 19.49 22.4194 19.3769 22.4831L15.7678 24.5853C15.6521 24.6532 15.5562 24.7502 15.4896 24.8666C15.4231 24.9831 15.3882 25.1149 15.3884 25.2491V29.4438C15.3884 29.7169 15.5328 29.9719 15.7678 30.1088L16.7178 30.6544C17.1791 30.8819 17.3419 30.8813 17.5497 30.8813C18.2278 30.8813 18.6169 30.4628 18.6169 29.7438V25.6047C18.6165 25.5759 18.6049 25.5484 18.5846 25.5279C18.5643 25.5074 18.5369 25.4956 18.5081 25.495H18.0475C18.0186 25.4955 17.991 25.5072 17.9706 25.5277C17.9502 25.5482 17.9385 25.5758 17.9381 25.6047V29.7447C17.9381 30.0631 17.6041 30.3822 17.0706 30.1094L16.0847 29.5359C16.0484 29.5178 16.03 29.4716 16.03 29.4353V25.2397C16.03 25.2034 16.0484 25.1584 16.0847 25.14L19.6925 23.0472C19.7197 23.0291 19.7653 23.0291 19.8016 23.0472L23.4103 25.14C23.4462 25.1584 23.4641 25.1944 23.4641 25.24V29.435C23.4641 29.4803 23.4462 29.5175 23.4103 29.5356L19.8016 31.6378C19.7744 31.6559 19.7287 31.6559 19.6925 31.6378L18.7703 31.0819C18.7431 31.0638 18.7069 31.0547 18.6797 31.0728C18.4266 31.2184 18.3822 31.2375 18.1378 31.3194C18.0834 31.3375 17.9931 31.3734 18.1737 31.4734L19.3769 32.1928C19.4944 32.2563 19.6206 32.2925 19.7562 32.2925C19.8919 32.2925 20.0272 32.2566 20.1356 32.2112L23.7447 30.1091C23.8604 30.041 23.9564 29.9437 24.0229 29.8271C24.0895 29.7104 24.1243 29.5784 24.1241 29.4441V25.2491C24.1241 24.9759 23.9797 24.7219 23.7447 24.5853L20.1356 22.4831C20.0194 22.4192 19.8888 22.3861 19.7562 22.3869ZM25.3906 24.3025C25.2054 24.3032 25.0281 24.3775 24.8976 24.5089C24.7671 24.6404 24.6941 24.8182 24.6947 25.0034C24.6942 25.1886 24.7672 25.3664 24.8977 25.4977C25.0282 25.6291 25.2055 25.7033 25.3906 25.7041C25.7709 25.7041 26.0869 25.3856 26.0869 25.0034C26.0859 24.8187 26.0124 24.6417 25.8821 24.5106C25.7519 24.3796 25.5754 24.3046 25.3906 24.3025ZM25.3812 24.4209C25.4583 24.42 25.5347 24.4344 25.6062 24.4632C25.6776 24.4921 25.7426 24.5349 25.7973 24.5891C25.8521 24.6433 25.8955 24.7078 25.9251 24.7789C25.9547 24.8501 25.9698 24.9264 25.9697 25.0034C25.9697 25.3222 25.7072 25.5953 25.3816 25.5953C25.0653 25.5953 24.8028 25.3309 24.8028 25.0034C24.8028 24.6759 25.0741 24.4209 25.3812 24.4209ZM25.1284 24.6119V25.4125H25.2828V25.095H25.4184C25.4728 25.095 25.4906 25.1131 25.4997 25.1584C25.4997 25.1678 25.5266 25.3678 25.5266 25.4041H25.6891C25.6709 25.3678 25.6619 25.2584 25.6528 25.1947C25.6441 25.0947 25.6353 25.0219 25.5266 25.0128C25.5809 24.9944 25.6712 24.9672 25.6712 24.8216C25.6712 24.6122 25.49 24.6122 25.4 24.6122L25.1284 24.6119ZM25.2644 24.7394H25.3906C25.4362 24.7394 25.5081 24.7394 25.5081 24.8484C25.5081 24.8847 25.4906 24.9581 25.3906 24.9581H25.2641L25.2644 24.7394ZM20.7425 25.3675C19.7112 25.3675 19.0962 25.8044 19.0962 26.5416C19.0962 27.3334 19.7112 27.5509 20.6972 27.6513C21.8816 27.7697 21.9722 27.9428 21.9722 28.1794C21.9722 28.5888 21.6459 28.7619 20.8862 28.7619C19.9275 28.7619 19.7197 28.525 19.6472 28.0428C19.6472 27.9881 19.6028 27.9522 19.5484 27.9522H19.0781C19.0494 27.9525 19.0219 27.9641 19.0017 27.9846C18.9815 28.005 18.9701 28.0325 18.97 28.0612C18.97 28.68 19.2953 29.4081 20.8784 29.4081C22.0175 29.4081 22.6778 28.9525 22.6778 28.1519C22.6778 27.3691 22.1528 27.16 21.0409 27.0144C19.9191 26.8688 19.8019 26.7869 19.8019 26.5231C19.8019 26.3047 19.9012 26.0138 20.7331 26.0138C21.4747 26.0138 21.7547 26.1778 21.8634 26.6781C21.8689 26.7007 21.8816 26.7209 21.8996 26.7355C21.9176 26.7502 21.9399 26.7586 21.9631 26.7594H22.4422C22.4697 26.7594 22.4969 26.7416 22.5153 26.7234C22.5321 26.6993 22.5413 26.6707 22.5419 26.6413C22.4697 25.7678 21.9003 25.3675 20.7425 25.3675Z" fill="#5FA04E"/>
<path d="M26.8975 7.7075C26.8591 7.70708 26.8212 7.71667 26.7875 7.73531C26.7525 7.75569 26.7233 7.78474 26.7028 7.81966C26.6823 7.85458 26.6711 7.89419 26.6703 7.93469V13.85C26.6703 13.9044 26.6422 13.9594 26.5881 13.9956C26.5632 14.0091 26.5352 14.0161 26.5069 14.0161C26.4785 14.0161 26.4506 14.0091 26.4256 13.9956L25.4675 13.4409C25.3972 13.4006 25.3176 13.3794 25.2366 13.3794C25.1556 13.3794 25.0759 13.4006 25.0056 13.4409L21.1719 15.6706C21.1009 15.7106 21.0418 15.7687 21.0005 15.8388C20.9592 15.909 20.9371 15.9889 20.9366 16.0703V20.5203C20.9366 20.6841 21.0272 20.8391 21.1719 20.9209L25.0063 23.1506C25.0765 23.1909 25.1561 23.212 25.237 23.212C25.318 23.212 25.3976 23.1909 25.4678 23.1506L29.3019 20.9209C29.4466 20.8391 29.5372 20.6841 29.5372 20.5203V9.4275C29.5372 9.25469 29.4466 9.09938 29.3019 9.01782L27.0144 7.73531C26.9782 7.71714 26.938 7.70762 26.8975 7.7075ZM4.2772 13.2594C4.20501 13.2594 4.13283 13.2856 4.0697 13.3219L0.235326 15.5434C0.163327 15.5845 0.103575 15.644 0.0622168 15.7159C0.0208585 15.7877 -0.000612381 15.8693 1.32935e-05 15.9522L0.00938829 21.9216C0.00938829 22.0038 0.0540758 22.0856 0.126576 22.1222C0.160127 22.1444 0.199469 22.1562 0.239701 22.1562C0.279932 22.1562 0.319274 22.1444 0.352826 22.1222L2.6322 20.8119C2.77689 20.73 2.86658 20.575 2.86658 20.4113V17.6175C2.86658 17.4538 2.9572 17.2988 3.1022 17.2169L4.0697 16.6528C4.14189 16.6072 4.22376 16.5891 4.30501 16.5891C4.38626 16.5891 4.46783 16.6072 4.53126 16.6528L5.49876 17.2169C5.64345 17.2988 5.73408 17.4538 5.73408 17.6175V20.4113C5.73408 20.575 5.82408 20.73 5.96845 20.8119L8.2297 22.1222C8.2649 22.1445 8.3057 22.1563 8.34736 22.1563C8.38901 22.1563 8.42981 22.1445 8.46501 22.1222C8.50092 22.1025 8.53081 22.0735 8.55151 22.0381C8.5722 22.0028 8.58291 21.9625 8.58251 21.9216V15.9522C8.58251 15.7884 8.49189 15.6334 8.34689 15.5513L4.52189 13.3219C4.45756 13.2874 4.38703 13.2661 4.31439 13.2591L4.2772 13.2594ZM35.7356 13.325C35.6566 13.325 35.5781 13.3456 35.5056 13.3869L31.6706 15.6153C31.526 15.6972 31.4363 15.8522 31.4363 16.0163V20.4663C31.4363 20.63 31.526 20.785 31.6706 20.8669L35.4781 23.0503C35.5467 23.0905 35.6247 23.1117 35.7042 23.1117C35.7837 23.1117 35.8618 23.0905 35.9303 23.0503L38.2366 21.7588C38.2724 21.739 38.3023 21.71 38.3229 21.6746C38.3435 21.6393 38.3542 21.599 38.3538 21.5581C38.3541 21.5173 38.3434 21.4772 38.3227 21.442C38.3021 21.4068 38.2723 21.3778 38.2366 21.3581L34.3844 19.1281C34.3494 19.1076 34.3202 19.0783 34.2997 19.0433C34.2791 19.0082 34.268 18.9684 34.2672 18.9278V17.5353C34.2667 17.4945 34.2774 17.4543 34.2981 17.4191C34.3187 17.3838 34.3485 17.3549 34.3844 17.3353L35.5875 16.6434C35.6227 16.6212 35.6635 16.6094 35.7052 16.6094C35.7468 16.6094 35.7876 16.6212 35.8228 16.6434L37.0247 17.335C37.0599 17.3555 37.0892 17.3847 37.1099 17.4198C37.1306 17.4548 37.1419 17.4946 37.1428 17.5353V18.6275C37.1428 18.7097 37.1878 18.7916 37.26 18.8278C37.2952 18.8502 37.3361 18.862 37.3778 18.862C37.4195 18.862 37.4604 18.8502 37.4956 18.8278L39.7741 17.4903C39.8439 17.4495 39.9017 17.3909 39.9415 17.3205C39.9812 17.25 40.0015 17.1703 40.0003 17.0894V16.0066C40.0003 15.8428 39.9097 15.6888 39.7741 15.6066L35.9666 13.3866C35.8963 13.3464 35.8169 13.325 35.736 13.3247L35.7356 13.325ZM25.2366 16.6481C25.2569 16.6481 25.2775 16.6528 25.296 16.6622L26.6066 17.4266C26.6428 17.4447 26.6613 17.4897 26.6613 17.5263V19.055C26.6613 19.1006 26.6428 19.1375 26.6066 19.1556L25.2956 19.92C25.2772 19.929 25.257 19.9336 25.2366 19.9336C25.2161 19.9336 25.1959 19.929 25.1775 19.92L23.8666 19.1556C23.8303 19.1375 23.8119 19.0916 23.8119 19.055V17.5263C23.8119 17.4806 23.8306 17.4447 23.8666 17.4263L25.1775 16.6622C25.1959 16.653 25.216 16.6481 25.2366 16.6481Z" fill="#333333"/>
<path d="M14.9943 13.4041C14.9241 13.3638 14.8446 13.3427 14.7637 13.3427C14.6828 13.3427 14.6033 13.3638 14.5331 13.4041L10.7256 15.6156C10.6557 15.6562 10.5979 15.7147 10.5582 15.7851C10.5184 15.8555 10.4981 15.9351 10.4993 16.0159V20.4475C10.4993 20.6116 10.5899 20.7662 10.7256 20.8481L14.5331 23.0594C14.6033 23.0996 14.6828 23.1208 14.7637 23.1208C14.8446 23.1208 14.9241 23.0996 14.9943 23.0594L18.8015 20.8481C18.9462 20.7662 19.0278 20.6116 19.0278 20.4475V16.0159C19.0278 15.8522 18.9371 15.6972 18.8015 15.6156L14.9943 13.4041Z" fill="url(#paint0_linear_168_182)"/>
<path d="M18.8107 15.6156L14.9854 13.4041C14.9479 13.385 14.9085 13.3699 14.8679 13.3587L10.5811 20.7387C10.6173 20.7844 10.6623 20.8206 10.7076 20.8481L14.5332 23.0594C14.6417 23.1231 14.7682 23.1412 14.8857 23.1047L18.9104 15.6975C18.884 15.6629 18.8498 15.6349 18.8107 15.6156Z" fill="url(#paint1_linear_168_182)"/>
<path d="M18.8106 20.8478C18.9193 20.7841 19.0006 20.675 19.0368 20.5566L14.8493 13.3494C14.7412 13.3312 14.6234 13.3403 14.524 13.4041L10.7256 15.6062L14.8225 23.1228C14.8765 23.1137 14.94 23.0956 14.9943 23.0681L18.8106 20.8478Z" fill="url(#paint2_linear_168_182)"/>
</g>
<defs>
<linearGradient id="paint0_linear_168_182" x1="16.3141" y1="15.0508" x2="12.837" y2="22.1002" gradientUnits="userSpaceOnUse">
<stop stop-color="#3F873F"/>
<stop offset="0.33" stop-color="#3F8B3D"/>
<stop offset="0.637" stop-color="#3E9638"/>
<stop offset="0.934" stop-color="#3DA92E"/>
<stop offset="1" stop-color="#3DAE2B"/>
</linearGradient>
<linearGradient id="paint1_linear_168_182" x1="14.1853" y1="18.7492" x2="23.8869" y2="11.6252" gradientUnits="userSpaceOnUse">
<stop offset="0.138" stop-color="#3F873F"/>
<stop offset="0.402" stop-color="#52A044"/>
<stop offset="0.713" stop-color="#64B749"/>
<stop offset="0.908" stop-color="#6ABF4B"/>
</linearGradient>
<linearGradient id="paint2_linear_168_182" x1="10.3601" y1="18.2302" x2="19.1702" y2="18.2302" gradientUnits="userSpaceOnUse">
<stop offset="0.092" stop-color="#6ABF4B"/>
<stop offset="0.287" stop-color="#64B749"/>
<stop offset="0.598" stop-color="#52A044"/>
<stop offset="0.862" stop-color="#3F873F"/>
</linearGradient>
<clipPath id="clip0_168_182">
<rect width="40" height="40" fill="white"/>
</clipPath>
</defs>
</svg>
