<svg width="40" height="40" viewBox="0 0 40 40" fill="none" xmlns="http://www.w3.org/2000/svg">
<path d="M27.8857 1.83H25.5782L27.9778 4.43406V5.67375H23.0353V4.22219H25.4347L23.0353 1.61813V0.37719H27.8857V1.83ZM22.0553 1.83H19.7478L22.1475 4.43406V5.67375H17.2047V4.22219H19.6044L17.2047 1.61813V0.37719H22.0553V1.83ZM16.2822 1.88938H13.7922V4.16156H16.2822V5.67375H12.0222V0.37719H16.2822V1.88938Z" fill="#131313"/>
<path d="M8.62895 36.4706L6.09863 8.09156H33.9008L31.3683 36.4659L19.9827 39.6228L8.62895 36.4706Z" fill="#1572B6"/>
<path d="M20.0002 37.21L29.1999 34.6594L31.3643 10.4122H20.0002V37.21Z" fill="#33A9DC"/>
<path d="M20 20.6938H24.6056L24.9241 17.1297H20V13.6491H28.7278L28.6444 14.5828L27.7891 24.1741H20V20.6938Z" fill="white"/>
<path d="M20.0208 29.7331L20.0055 29.7375L16.1293 28.6906L15.8811 25.9147H12.3877L12.8755 31.3797L20.0049 33.3588L20.0211 33.3541L20.0208 29.7331Z" fill="#EBEBEB"/>
<path d="M24.31 24.0269L23.8907 28.6881L20.0088 29.7359V33.3572L27.1441 31.3797L27.1966 30.7916L27.8022 24.0269H24.31Z" fill="white"/>
<path d="M20.0123 13.6491V17.1294H11.6051L11.5351 16.3472L11.3766 14.5828L11.2932 13.6491H20.0123ZM20.0001 20.6941V24.1747H16.1729L16.1032 23.3925L15.9445 21.6278L15.861 20.6941H20.0001Z" fill="#EBEBEB"/>
</svg>
